<?xml version="1.0" encoding="us-ascii" standalone="no"?><svg xmlns="http://www.w3.org/2000/svg" xmlns:xlink="http://www.w3.org/1999/xlink" contentStyleType="text/css" height="631px" preserveAspectRatio="none" style="width:369px;height:631px;background:#FFFFFF;" version="1.1" viewBox="0 0 369 631" width="369px" zoomAndPan="magnify"><defs/><g><!--class MainWindow--><g id="elem_MainWindow"><rect codeLine="8" fill="#F1F1F1" height="476.6953" id="MainWindow" rx="2.5" ry="2.5" style="stroke:#181818;stroke-width:0.5;" width="353" x="9" y="7"/><ellipse cx="137.75" cy="23" fill="#ADD1B2" rx="11" ry="11" style="stroke:#181818;stroke-width:1.0;"/><path d="M140.2231,29.1431 Q139.6421,29.4419 139.0029,29.5913 Q138.3638,29.7407 137.6582,29.7407 Q135.1514,29.7407 133.8315,28.0889 Q132.5117,26.437 132.5117,23.3159 Q132.5117,20.1865 133.8315,18.5347 Q135.1514,16.8828 137.6582,16.8828 Q138.3638,16.8828 139.0112,17.0322 Q139.6587,17.1816 140.2231,17.4805 L140.2231,20.2031 Q139.5923,19.6221 138.9988,19.3523 Q138.4053,19.0825 137.7744,19.0825 Q136.4297,19.0825 135.7449,20.1492 Q135.0601,21.2158 135.0601,23.3159 Q135.0601,25.4077 135.7449,26.4744 Q136.4297,27.541 137.7744,27.541 Q138.4053,27.541 138.9988,27.2712 Q139.5923,27.0015 140.2231,26.4204 Z " fill="#000000"/><text fill="#000000" font-family="sans-serif" font-size="14" lengthAdjust="spacing" textLength="87" x="158.25" y="28.291">MainWindow</text><line style="stroke:#181818;stroke-width:0.5;" x1="10" x2="361" y1="39" y2="39"/><rect fill="none" height="6" style="stroke:#C82930;stroke-width:1.0;" width="6" x="17" y="49.7441"/><text fill="#000000" font-family="sans-serif" font-size="14" lengthAdjust="spacing" textLength="138" x="29" y="56.5352">m_type : FigureType</text><rect fill="none" height="6" style="stroke:#C82930;stroke-width:1.0;" width="6" x="17" y="66.2324"/><text fill="#000000" font-family="sans-serif" font-size="14" lengthAdjust="spacing" textLength="166" x="29" y="73.0234">context_menu : QMenu*</text><rect fill="none" height="6" style="stroke:#C82930;stroke-width:1.0;" width="6" x="17" y="82.7207"/><text fill="#000000" font-family="sans-serif" font-size="14" lengthAdjust="spacing" textLength="165" x="29" y="89.5117">figure_actions : QMenu*</text><rect fill="none" height="6" style="stroke:#C82930;stroke-width:1.0;" width="6" x="17" y="99.209"/><text fill="#000000" font-family="sans-serif" font-size="14" lengthAdjust="spacing" textLength="103" x="29" y="106">m_pos : QPoint</text><rect fill="none" height="6" style="stroke:#C82930;stroke-width:1.0;" width="6" x="17" y="115.6973"/><text fill="#000000" font-family="sans-serif" font-size="14" lengthAdjust="spacing" textLength="120" x="29" y="122.4883">m_figure : QRect*</text><rect fill="none" height="6" style="stroke:#C82930;stroke-width:1.0;" width="6" x="17" y="132.1855"/><text fill="#000000" font-family="sans-serif" font-size="14" lengthAdjust="spacing" textLength="160" x="29" y="138.9766">is_figure_created : bool</text><rect fill="none" height="6" style="stroke:#C82930;stroke-width:1.0;" width="6" x="17" y="148.6738"/><text fill="#000000" font-family="sans-serif" font-size="14" lengthAdjust="spacing" textLength="112" x="29" y="155.4648">is_moving : bool</text><rect fill="none" height="6" style="stroke:#C82930;stroke-width:1.0;" width="6" x="17" y="165.1621"/><text fill="#000000" font-family="sans-serif" font-size="14" lengthAdjust="spacing" textLength="172" x="29" y="171.9531">PIXEL_CHANGE : const int</text><rect fill="none" height="6" style="stroke:#C82930;stroke-width:1.0;" width="6" x="17" y="181.6504"/><text fill="#000000" font-family="sans-serif" font-size="14" lengthAdjust="spacing" textLength="188" x="29" y="188.4414">WINDOW_HEIGHT : const int</text><rect fill="none" height="6" style="stroke:#C82930;stroke-width:1.0;" width="6" x="17" y="198.1387"/><text fill="#000000" font-family="sans-serif" font-size="14" lengthAdjust="spacing" textLength="182" x="29" y="204.9297">WINDOW_WIDTH : const int</text><rect fill="none" height="6" style="stroke:#C82930;stroke-width:1.0;" width="6" x="17" y="214.627"/><text fill="#000000" font-family="sans-serif" font-size="14" lengthAdjust="spacing" textLength="88" x="29" y="221.418">m_angle : int</text><rect fill="none" height="6" style="stroke:#C82930;stroke-width:1.0;" width="6" x="17" y="231.1152"/><text fill="#000000" font-family="sans-serif" font-size="14" lengthAdjust="spacing" textLength="78" x="29" y="237.9063">m_side : int</text><line style="stroke:#181818;stroke-width:0.5;" x1="10" x2="361" y1="244.8594" y2="244.8594"/><ellipse cx="20" cy="258.6035" fill="#84BE84" rx="3" ry="3" style="stroke:#038048;stroke-width:1.0;"/><text fill="#000000" font-family="sans-serif" font-size="14" lengthAdjust="spacing" textLength="211" x="29" y="262.3945">MainWindow(QWidget* parent)</text><ellipse cx="20" cy="275.0918" fill="#84BE84" rx="3" ry="3" style="stroke:#038048;stroke-width:1.0;"/><text fill="#000000" font-family="sans-serif" font-size="14" lengthAdjust="spacing" textLength="106" x="29" y="278.8828">~MainWindow()</text><polygon fill="#FFFF44" points="20,286.5801,24,290.5801,20,294.5801,16,290.5801" style="stroke:#B38D22;stroke-width:1.0;"/><text fill="#000000" font-family="sans-serif" font-size="14" lengthAdjust="spacing" textLength="226" x="29" y="295.3711">isPointInside(QPoint point) : bool</text><polygon fill="#FFFF44" points="20,303.0684,24,307.0684,20,311.0684,16,307.0684" style="stroke:#B38D22;stroke-width:1.0;"/><text fill="#000000" font-family="sans-serif" font-size="14" lengthAdjust="spacing" textLength="117" x="29" y="311.8594">addPixels() : void</text><polygon fill="#FFFF44" points="20,319.5566,24,323.5566,20,327.5566,16,323.5566" style="stroke:#B38D22;stroke-width:1.0;"/><text fill="#000000" font-family="sans-serif" font-size="14" lengthAdjust="spacing" textLength="306" x="29" y="328.3477">customContextMenuShow(QPoint pos) : void</text><polygon fill="#FFFF44" points="20,336.0449,24,340.0449,20,344.0449,16,340.0449" style="stroke:#B38D22;stroke-width:1.0;"/><text fill="#000000" font-family="sans-serif" font-size="14" lengthAdjust="spacing" textLength="137" x="29" y="344.8359">deleteFigure() : void</text><polygon fill="#FFFF44" points="20,352.5332,24,356.5332,20,360.5332,16,356.5332" style="stroke:#B38D22;stroke-width:1.0;"/><text fill="#000000" font-family="sans-serif" font-size="14" lengthAdjust="spacing" textLength="124" x="29" y="361.3242">drawCircle() : void</text><polygon fill="#FFFF44" points="20,369.0215,24,373.0215,20,377.0215,16,373.0215" style="stroke:#B38D22;stroke-width:1.0;"/><text fill="#000000" font-family="sans-serif" font-size="14" lengthAdjust="spacing" textLength="133" x="29" y="377.8125">drawSquare() : void</text><polygon fill="#FFFF44" points="20,385.5098,24,389.5098,20,393.5098,16,389.5098" style="stroke:#B38D22;stroke-width:1.0;"/><text fill="#000000" font-family="sans-serif" font-size="14" lengthAdjust="spacing" textLength="311" x="29" y="394.3008">mouseMoveEvent(QMouseEvent* event) : void</text><polygon fill="#FFFF44" points="20,401.998,24,405.998,20,409.998,16,405.998" style="stroke:#B38D22;stroke-width:1.0;"/><text fill="#000000" font-family="sans-serif" font-size="14" lengthAdjust="spacing" textLength="311" x="29" y="410.7891">mousePressEvent(QMouseEvent* event) : void</text><polygon fill="#FFFF44" points="20,418.4863,24,422.4863,20,426.4863,16,422.4863" style="stroke:#B38D22;stroke-width:1.0;"/><text fill="#000000" font-family="sans-serif" font-size="14" lengthAdjust="spacing" textLength="327" x="29" y="427.2773">mouseReleaseEvent(QMouseEvent* event) : void</text><polygon fill="#FFFF44" points="20,434.9746,24,438.9746,20,442.9746,16,438.9746" style="stroke:#B38D22;stroke-width:1.0;"/><text fill="#000000" font-family="sans-serif" font-size="14" lengthAdjust="spacing" textLength="253" x="29" y="443.7656">paintEvent(QPaintEvent* event) : void</text><polygon fill="#FFFF44" points="20,451.4629,24,455.4629,20,459.4629,16,455.4629" style="stroke:#B38D22;stroke-width:1.0;"/><text fill="#000000" font-family="sans-serif" font-size="14" lengthAdjust="spacing" textLength="138" x="29" y="460.2539">reducePixels() : void</text><polygon fill="#FFFF44" points="20,467.9512,24,471.9512,20,475.9512,16,471.9512" style="stroke:#B38D22;stroke-width:1.0;"/><text fill="#000000" font-family="sans-serif" font-size="14" lengthAdjust="spacing" textLength="136" x="29" y="476.7422">rotateFigure() : void</text></g><!--class FigureType--><g id="elem_FigureType"><rect codeLine="38" fill="#F1F1F1" height="80.9766" id="FigureType" rx="2.5" ry="2.5" style="stroke:#181818;stroke-width:0.5;" width="109" x="131" y="543.69"/><ellipse cx="146" cy="559.69" fill="#EB937F" rx="11" ry="11" style="stroke:#181818;stroke-width:1.0;"/><path d="M149.6143,566.19 L141.8945,566.19 L141.8945,553.7969 L149.6143,553.7969 L149.6143,555.9551 L144.3433,555.9551 L144.3433,558.628 L149.1162,558.628 L149.1162,560.7862 L144.3433,560.7862 L144.3433,564.0318 L149.6143,564.0318 Z " fill="#000000"/><text fill="#000000" font-family="sans-serif" font-size="14" lengthAdjust="spacing" textLength="77" x="160" y="564.981">FigureType</text><line style="stroke:#181818;stroke-width:0.5;" x1="132" x2="239" y1="575.69" y2="575.69"/><text fill="#000000" font-family="sans-serif" font-size="14" lengthAdjust="spacing" textLength="48" x="137" y="593.2252">CIRCLE</text><text fill="#000000" font-family="sans-serif" font-size="14" lengthAdjust="spacing" textLength="56" x="137" y="609.7134">SQUARE</text><line style="stroke:#181818;stroke-width:0.5;" x1="132" x2="239" y1="616.6666" y2="616.6666"/></g><!--reverse link MainWindow to FigureType--><g id="link_MainWindow_FigureType"><path codeLine="54" d="M185.5,495.94 C185.5,518.37 185.5,526.81 185.5,543.24 " fill="none" id="MainWindow-backto-FigureType" style="stroke:#181818;stroke-width:1.0;"/><polygon fill="#181818" points="185.5,483.94,181.5,489.94,185.5,495.94,189.5,489.94,185.5,483.94" style="stroke:#181818;stroke-width:1.0;"/></g><!--SRC=[ZLDDSu8m53oNNv4P3rexwhqtXr9bnW_ywD0R4vDNJ0SIcWJRJgVzxNq1hLWzo07oTZTXMTuRjCbyymhC6j8UU1xBg35aIeMCXUJgdNnvDtV7ihE81K_1Tab1DKXxY-nFWyQwboVsim1oJnv5McfOOu4eKzB2Xqroa2LoYoa-kuY_LAA4CYkKD4qcJmfL0P4IqbP0BNRO4XsZg2LCnORI20wTMaeATxz5sKQf33SAiz-PC0tK0Z-XShKJCZr2KVWSJ19_F9oD0aJHkB6aTX27iuTvd8o3S3HUN-RYy64z_aVb2PLfvdmVQkVsKBOevv7uWCnqdEUT4Xn1LXghShzEpKMoshhu3nze6b8E6LYeqsuUmJLzzuLcsHcwUYlfgJPNfO6fsa6mmz_QMKnTNQsx1DpZlpRIOCoruYKwfEQQimli9RlNHN_hSvq6NZ8uZqqhIy-p-FOy3oFC6otf6jiFb_uay6vMYwVXCgXKU0tQ99HRqC9IoO1eo6ZLcrjHr3DIQuPfgY6jg0kQVcE4khqUwJU6uUyrCp2k6LLZ_hnV]--></g></svg>